# xmcd
#
# Track frame offsets: 
#        150
#        12150
#        22457
#        34087
#        46059
#        55913
#        68547
#        78122
#        89739
#        102352
#        112958
#        125877
#        136874
#        148386
#        160016
#        171639
#        182545
#        196286
#        208390
#        220626
#
# Disc length: 3083 seconds
#
# Revision: 2
# Processed by: cddbd v1.5.2PL0 Copyright (c) Steve Scherf et al.
# Submitted via: ExactAudioCopy v0.95b2
#
DISCID=250c0914
DTITLE=Conway Twitty - Looking Back: The Very Best of the MGM Recordin
DTITLE=gs  Disc 2
DYEAR=1900
DGENRE=
TTITLE0=What am I Living for?
TTITLE1=Knock three times
TTITLE2=What a Dream
TTITLE3=It´s a Bluebird Blue?
TTITLE4=The Flame
TTITLE5=The long black Train
TTITLE6=The next Kiss
TTITLE7=A Tree in the Meadow
TTITLE8=A man alone
TTITLE9=Tower of Tears
TTITLE10=I can Hear my Heart Break
TTITLE11=It´s Driving me wild
TTITLE12=Portrait of a Fool
TTITLE13=There Is Something on your Mind
TTITLE14=Looking Back
TTITLE15=It´s too Late
TTITLE16=Big Boss Man
TTITLE17=Don´t Cry No More
TTITLE18=She Ain`t No Angel
TTITLE19=Got My Mojo Working
EXTD=
EXTT0=
EXTT1=
EXTT2=
EXTT3=
EXTT4=
EXTT5=
EXTT6=
EXTT7=
EXTT8=
EXTT9=
EXTT10=
EXTT11=
EXTT12=
EXTT13=
EXTT14=
EXTT15=
EXTT16=
EXTT17=
EXTT18=
EXTT19=
PLAYORDER=
